<svg width="1637" height="482" viewBox="0 0 1637 482" fill="none" xmlns="http://www.w3.org/2000/svg">
<path fill-rule="evenodd" clip-rule="evenodd" d="M0 267.556L122.982 53.519H373.018L496 267.556L373.018 481.593H122.982L0 267.556Z" fill="#344E41"/>
<path fill-rule="evenodd" clip-rule="evenodd" d="M91.3081 267.565L168.684 132.897H326.398L403.774 267.565L326.398 402.229H168.684L91.3081 267.565Z" fill="white"/>
<path fill-rule="evenodd" clip-rule="evenodd" d="M166.557 267.57L206.764 197.593H288.318L328.525 267.57L288.318 337.547H206.764L166.557 267.57Z" fill="#344E41"/>
<path fill-rule="evenodd" clip-rule="evenodd" d="M167.392 134.897L245.008 0H316.972L239.356 134.897H167.392Z" fill="white"/>
<path d="M647.016 341.952C666.195 341.952 675.784 334.843 675.784 320.624C675.784 314.837 674.296 310.291 671.32 306.984C668.509 303.677 663.219 300.784 655.448 298.304L635.112 291.608C610.808 283.672 598.656 267.717 598.656 243.744C598.656 229.856 602.955 218.448 611.552 209.52C620.315 200.427 633.955 195.88 652.472 195.88C660.243 195.88 667.931 196.789 675.536 198.608C683.141 200.261 691.243 202.989 699.84 206.792L690.664 232.336C682.728 229.195 675.949 226.963 670.328 225.64C664.872 224.152 659.251 223.408 653.464 223.408C645.859 223.408 639.824 224.813 635.36 227.624C631.061 230.269 628.912 235.147 628.912 242.256C628.912 247.547 630.4 251.928 633.376 255.4C636.517 258.707 641.643 261.517 648.752 263.832L669.088 270.528C681.323 274.661 690.499 280.696 696.616 288.632C702.899 296.403 706.04 306.736 706.04 319.632C706.04 334.512 701.328 346.581 691.904 355.84C682.48 364.933 667.683 369.48 647.512 369.48C639.576 369.48 631.309 368.571 622.712 366.752C614.28 364.768 605.021 361.461 594.936 356.832L604.112 331.288C613.371 335.256 621.224 338.067 627.672 339.72C634.285 341.208 640.733 341.952 647.016 341.952ZM768.431 367H738.671V198.36H768.431V367ZM895.312 367L860.096 305.248L826.616 367H795.368L844.72 279.456L798.096 198.36H831.824L864.312 254.904L894.816 198.36H926.064L879.688 280.944L929.04 367H895.312ZM1042.51 341.952C1061.69 341.952 1071.28 334.843 1071.28 320.624C1071.28 314.837 1069.79 310.291 1066.81 306.984C1064 303.677 1058.71 300.784 1050.94 298.304L1030.6 291.608C1006.3 283.672 994.148 267.717 994.148 243.744C994.148 229.856 998.447 218.448 1007.04 209.52C1015.81 200.427 1029.45 195.88 1047.96 195.88C1055.73 195.88 1063.42 196.789 1071.03 198.608C1078.63 200.261 1086.73 202.989 1095.33 206.792L1086.16 232.336C1078.22 229.195 1071.44 226.963 1065.82 225.64C1060.36 224.152 1054.74 223.408 1048.96 223.408C1041.35 223.408 1035.32 224.813 1030.85 227.624C1026.55 230.269 1024.4 235.147 1024.4 242.256C1024.4 247.547 1025.89 251.928 1028.87 255.4C1032.01 258.707 1037.13 261.517 1044.24 263.832L1064.58 270.528C1076.81 274.661 1085.99 280.696 1092.11 288.632C1098.39 296.403 1101.53 306.736 1101.53 319.632C1101.53 334.512 1096.82 346.581 1087.4 355.84C1077.97 364.933 1063.17 369.48 1043 369.48C1035.07 369.48 1026.8 368.571 1018.2 366.752C1009.77 364.768 1000.51 361.461 990.428 356.832L999.604 331.288C1008.86 335.256 1016.72 338.067 1023.16 339.72C1029.78 341.208 1036.23 341.952 1042.51 341.952ZM1163.92 367H1134.16V198.36H1163.92V367ZM1210.45 367V198.36H1267.49C1287.66 198.36 1303.04 203.981 1313.62 215.224C1324.2 226.467 1329.49 243 1329.49 264.824V300.288C1329.49 322.277 1324.2 338.893 1313.62 350.136C1303.04 361.379 1287.66 367 1267.49 367H1210.45ZM1266.25 226.88H1240.21V338.48H1266.25C1277.99 338.48 1286.34 335.587 1291.3 329.8C1296.43 324.013 1298.99 314.176 1298.99 300.288V264.824C1298.99 251.101 1296.43 241.347 1291.3 235.56C1286.34 229.773 1277.99 226.88 1266.25 226.88ZM1466.56 338.48V367H1368.84V198.36H1464.08V226.88H1398.6V267.304H1456.64V295.824H1398.6V338.48H1466.56ZM1501.8 367V198.36H1558.84C1579.01 198.36 1594.39 203.981 1604.97 215.224C1615.55 226.467 1620.84 243 1620.84 264.824V300.288C1620.84 322.277 1615.55 338.893 1604.97 350.136C1594.39 361.379 1579.01 367 1558.84 367H1501.8ZM1557.6 226.88H1531.56V338.48H1557.6C1569.34 338.48 1577.69 335.587 1582.65 329.8C1587.78 324.013 1590.34 314.176 1590.34 300.288V264.824C1590.34 251.101 1587.78 241.347 1582.65 235.56C1577.69 229.773 1569.34 226.88 1557.6 226.88Z" fill="black"/>
</svg>
